name rise49.25peak52.1432fall72.8391.mot
datacolumns 19
datarows 33
range 0.79333400000000 0.84666300000000
endheader
time	ground_force1_vx	ground_force1_vy	ground_force1_vz	ground_force1_px	ground_force1_py	ground_force1_pz	ground_force2_vx	ground_force2_vy	ground_force2_vz	ground_force2_px	ground_force2_py	ground_force2_pz	ground_torque1_x	ground_torque1_y	ground_torque1_z	ground_torque2_x	ground_torque2_y	ground_torque2_z	
0.79333400000000	25.43742200000000	705.83086100000003	40.45900300000000	0.27260800000000	0.00000000000000	0.10272000000000	0.00000000000000	0.00000000000000	0.00000000000000	0.00000000000000	0.00000000000000	0.00000000000000	0.00000000000000	16.83410700000000	0.00000000000000	0.00000000000000	0.00000000000000	0.00000000000000	
0.79499600000000	25.14406300000000	706.36933999999997	40.45708900000000	0.27219400000000	0.00000000000000	0.10262100000000	0.00000000000000	0.00000000000000	0.00000000000000	0.00000000000000	0.00000000000000	0.00000000000000	0.00000000000000	16.88649300000000	0.00000000000000	0.00000000000000	0.00000000000000	0.00000000000000	
0.79666400000000	24.84301700000000	706.92438200000004	40.45753100000000	0.27179000000000	0.00000000000000	0.10252100000000	0.00000000000000	0.00000000000000	0.00000000000000	0.00000000000000	0.00000000000000	0.00000000000000	0.00000000000000	16.94254000000000	0.00000000000000	0.00000000000000	0.00000000000000	0.00000000000000	
0.79832900000000	24.53403300000000	707.49464000000000	40.46011300000000	0.27139200000000	0.00000000000000	0.10242000000000	0.00000000000000	0.00000000000000	0.00000000000000	0.00000000000000	0.00000000000000	0.00000000000000	0.00000000000000	17.00205800000000	0.00000000000000	0.00000000000000	0.00000000000000	0.00000000000000	
0.79999900000000	24.21689200000000	708.07884500000000	40.46463000000000	0.27099800000000	0.00000000000000	0.10231900000000	0.00000000000000	0.00000000000000	0.00000000000000	0.00000000000000	0.00000000000000	0.00000000000000	0.00000000000000	17.06485600000000	0.00000000000000	0.00000000000000	0.00000000000000	0.00000000000000	
0.80165900000000	23.89139800000000	708.67580999999996	40.47088800000000	0.27060600000000	0.00000000000000	0.10221700000000	0.00000000000000	0.00000000000000	0.00000000000000	0.00000000000000	0.00000000000000	0.00000000000000	0.00000000000000	17.13074600000000	0.00000000000000	0.00000000000000	0.00000000000000	0.00000000000000	
0.80333300000000	23.55738400000000	709.28443100000004	40.47870600000000	0.27021300000000	0.00000000000000	0.10211600000000	0.00000000000000	0.00000000000000	0.00000000000000	0.00000000000000	0.00000000000000	0.00000000000000	0.00000000000000	17.19954000000000	0.00000000000000	0.00000000000000	0.00000000000000	0.00000000000000	
0.80500500000000	23.21471300000000	709.90368100000001	40.48791300000000	0.26981700000000	0.00000000000000	0.10201400000000	0.00000000000000	0.00000000000000	0.00000000000000	0.00000000000000	0.00000000000000	0.00000000000000	0.00000000000000	17.27105400000000	0.00000000000000	0.00000000000000	0.00000000000000	0.00000000000000	
0.80666600000000	22.86327100000000	710.53261399999997	40.49835000000000	0.26941500000000	0.00000000000000	0.10191300000000	0.00000000000000	0.00000000000000	0.00000000000000	0.00000000000000	0.00000000000000	0.00000000000000	0.00000000000000	17.34510500000000	0.00000000000000	0.00000000000000	0.00000000000000	0.00000000000000	
0.80832900000000	22.50297600000000	711.17036099999996	40.50987000000000	0.26900400000000	0.00000000000000	0.10181200000000	0.00000000000000	0.00000000000000	0.00000000000000	0.00000000000000	0.00000000000000	0.00000000000000	0.00000000000000	17.42151200000000	0.00000000000000	0.00000000000000	0.00000000000000	0.00000000000000	
0.80999900000000	22.13377100000000	711.81613000000004	40.52234000000000	0.26858300000000	0.00000000000000	0.10171100000000	0.00000000000000	0.00000000000000	0.00000000000000	0.00000000000000	0.00000000000000	0.00000000000000	0.00000000000000	17.50010100000000	0.00000000000000	0.00000000000000	0.00000000000000	0.00000000000000	
0.81166700000000	21.75563000000000	712.46920000000000	40.53563500000000	0.26814900000000	0.00000000000000	0.10161200000000	0.00000000000000	0.00000000000000	0.00000000000000	0.00000000000000	0.00000000000000	0.00000000000000	0.00000000000000	17.58070000000000	0.00000000000000	0.00000000000000	0.00000000000000	0.00000000000000	
0.81332600000000	21.36855100000000	713.12892599999998	40.54964600000000	0.26770100000000	0.00000000000000	0.10151300000000	0.00000000000000	0.00000000000000	0.00000000000000	0.00000000000000	0.00000000000000	0.00000000000000	0.00000000000000	17.66314300000000	0.00000000000000	0.00000000000000	0.00000000000000	0.00000000000000	
0.81500800000000	20.97256200000000	713.79472899999996	40.56427300000000	0.26723500000000	0.00000000000000	0.10141500000000	0.00000000000000	0.00000000000000	0.00000000000000	0.00000000000000	0.00000000000000	0.00000000000000	0.00000000000000	17.74726700000000	0.00000000000000	0.00000000000000	0.00000000000000	0.00000000000000	
0.81666300000000	20.56771500000000	714.46609699999999	40.57942900000000	0.26675100000000	0.00000000000000	0.10131800000000	0.00000000000000	0.00000000000000	0.00000000000000	0.00000000000000	0.00000000000000	0.00000000000000	0.00000000000000	17.83291800000000	0.00000000000000	0.00000000000000	0.00000000000000	0.00000000000000	
0.81833100000000	20.15409300000000	715.14258099999995	40.59503900000000	0.26624600000000	0.00000000000000	0.10122200000000	0.00000000000000	0.00000000000000	0.00000000000000	0.00000000000000	0.00000000000000	0.00000000000000	0.00000000000000	17.91994500000000	0.00000000000000	0.00000000000000	0.00000000000000	0.00000000000000	
0.81999900000000	19.73180000000000	715.82379300000002	40.61103600000000	0.26571800000000	0.00000000000000	0.10112800000000	0.00000000000000	0.00000000000000	0.00000000000000	0.00000000000000	0.00000000000000	0.00000000000000	0.00000000000000	18.00820500000000	0.00000000000000	0.00000000000000	0.00000000000000	0.00000000000000	
0.82166500000000	19.30096800000000	716.50940100000003	40.62736900000000	0.26516800000000	0.00000000000000	0.10103600000000	0.00000000000000	0.00000000000000	0.00000000000000	0.00000000000000	0.00000000000000	0.00000000000000	0.00000000000000	18.09756100000000	0.00000000000000	0.00000000000000	0.00000000000000	0.00000000000000	
0.82333000000000	18.86175600000000	717.19912899999997	40.64399400000000	0.26459200000000	0.00000000000000	0.10094400000000	0.00000000000000	0.00000000000000	0.00000000000000	0.00000000000000	0.00000000000000	0.00000000000000	0.00000000000000	18.18788300000000	0.00000000000000	0.00000000000000	0.00000000000000	0.00000000000000	
0.82500100000000	18.41434200000000	717.89274799999998	40.66087900000000	0.26398900000000	0.00000000000000	0.10085500000000	0.00000000000000	0.00000000000000	0.00000000000000	0.00000000000000	0.00000000000000	0.00000000000000	0.00000000000000	18.27904800000000	0.00000000000000	0.00000000000000	0.00000000000000	0.00000000000000	
0.82666400000000	17.95893200000000	718.59007799999995	40.67800300000000	0.26336000000000	0.00000000000000	0.10076800000000	0.00000000000000	0.00000000000000	0.00000000000000	0.00000000000000	0.00000000000000	0.00000000000000	0.00000000000000	18.37094100000000	0.00000000000000	0.00000000000000	0.00000000000000	0.00000000000000	
0.82833400000000	17.49575300000000	719.29098299999998	40.69535300000000	0.26270200000000	0.00000000000000	0.10068200000000	0.00000000000000	0.00000000000000	0.00000000000000	0.00000000000000	0.00000000000000	0.00000000000000	0.00000000000000	18.46345100000000	0.00000000000000	0.00000000000000	0.00000000000000	0.00000000000000	
0.82999200000000	17.02505200000000	719.99536699999999	40.71292800000000	0.26201600000000	0.00000000000000	0.10059800000000	0.00000000000000	0.00000000000000	0.00000000000000	0.00000000000000	0.00000000000000	0.00000000000000	0.00000000000000	18.55648000000000	0.00000000000000	0.00000000000000	0.00000000000000	0.00000000000000	
0.83166300000000	16.54709900000000	720.70317000000000	40.73073400000000	0.26130000000000	0.00000000000000	0.10051700000000	0.00000000000000	0.00000000000000	0.00000000000000	0.00000000000000	0.00000000000000	0.00000000000000	0.00000000000000	18.64993100000000	0.00000000000000	0.00000000000000	0.00000000000000	0.00000000000000	
0.83333100000000	16.06218100000000	721.41436599999997	40.74878700000000	0.26055500000000	0.00000000000000	0.10043800000000	0.00000000000000	0.00000000000000	0.00000000000000	0.00000000000000	0.00000000000000	0.00000000000000	0.00000000000000	18.74371800000000	0.00000000000000	0.00000000000000	0.00000000000000	0.00000000000000	
0.83499200000000	15.57060600000000	722.12896200000000	40.76711400000000	0.25978000000000	0.00000000000000	0.10036000000000	0.00000000000000	0.00000000000000	0.00000000000000	0.00000000000000	0.00000000000000	0.00000000000000	0.00000000000000	18.83776300000000	0.00000000000000	0.00000000000000	0.00000000000000	0.00000000000000	
0.83666600000000	15.07269600000000	722.84699000000001	40.78574600000000	0.25897600000000	0.00000000000000	0.10028500000000	0.00000000000000	0.00000000000000	0.00000000000000	0.00000000000000	0.00000000000000	0.00000000000000	0.00000000000000	18.93199100000000	0.00000000000000	0.00000000000000	0.00000000000000	0.00000000000000	
0.83833200000000	14.56879100000000	723.56850799999995	40.80472600000000	0.25814200000000	0.00000000000000	0.10021300000000	0.00000000000000	0.00000000000000	0.00000000000000	0.00000000000000	0.00000000000000	0.00000000000000	0.00000000000000	19.02633700000000	0.00000000000000	0.00000000000000	0.00000000000000	0.00000000000000	
0.83999500000000	14.05924400000000	724.29359699999998	40.82410300000000	0.25727900000000	0.00000000000000	0.10014200000000	0.00000000000000	0.00000000000000	0.00000000000000	0.00000000000000	0.00000000000000	0.00000000000000	0.00000000000000	19.12074300000000	0.00000000000000	0.00000000000000	0.00000000000000	0.00000000000000	
0.84165900000000	13.54442000000000	725.02235700000006	40.84393400000000	0.25638700000000	0.00000000000000	0.10007400000000	0.00000000000000	0.00000000000000	0.00000000000000	0.00000000000000	0.00000000000000	0.00000000000000	0.00000000000000	19.21515700000000	0.00000000000000	0.00000000000000	0.00000000000000	0.00000000000000	
0.84333100000000	13.02469700000000	725.75490500000001	40.86428400000000	0.25546800000000	0.00000000000000	0.10000800000000	0.00000000000000	0.00000000000000	0.00000000000000	0.00000000000000	0.00000000000000	0.00000000000000	0.00000000000000	19.30953200000000	0.00000000000000	0.00000000000000	0.00000000000000	0.00000000000000	
0.84499800000000	12.50046200000000	726.49137299999995	40.88522400000000	0.25452200000000	0.00000000000000	0.09994400000000	0.00000000000000	0.00000000000000	0.00000000000000	0.00000000000000	0.00000000000000	0.00000000000000	0.00000000000000	19.40382900000000	0.00000000000000	0.00000000000000	0.00000000000000	0.00000000000000	
0.84666300000000	11.97210900000000	727.23190799999998	40.90683300000000	0.25354900000000	0.00000000000000	0.09988300000000	0.00000000000000	0.00000000000000	0.00000000000000	0.00000000000000	0.00000000000000	0.00000000000000	0.00000000000000	19.49801300000000	0.00000000000000	0.00000000000000	0.00000000000000	0.00000000000000	
